# xmcd CD database file generated by Grip 2.91
# 
# Track frame offsets:
#       150
#       14515
#       25802
#       44037
#       54752
#       64680
# 
# Disc length: 1036 seconds
# 
# Revision: 3
# Processed by: cddbd v1.4b41PL1 Copyright (c) Steve Scherf et al.
# Submitted via: Grip 2.91
# 
DISCID=48040a06
DTITLE=A Band Called Horse - The Shame of Arizona
DYEAR=1900
DGENRE=
TTITLE0=Truck Song
TTITLE1=Cannibal Cowboy
TTITLE2=The Haunted Phonogram
TTITLE3=Boom Chick
TTITLE4=The L Word
TTITLE5=Fuzzy Felt Wild West
EXTD=
EXTT0=
EXTT1=
EXTT2=
EXTT3=
EXTT4=
EXTT5=
PLAYORDER=
